<svg width="1508" height="600" xmlns="http://www.w3.org/2000/svg" version="1.1"><g transform="translate(50,0)"><text x="-50" y="-7" style="font-size: 10px; font-family: Arial, Helvetica;">null</text><g class="y axis" transform="translate(0,0)" style="font-size: 10px; font-family: Arial, Helvetica;"><g class="tick" transform="translate(0,550)" style="opacity: 1;"><line x2="-6" y2="0" style="shape-rendering: crispEdges; fill: none; stroke: rgb(204, 204, 204);"></line><text dy=".32em" x="-9" y="0" style="text-anchor: end;">0.00</text></g><g class="tick" transform="translate(0,532.9896907304177)" style="opacity: 1;"><line x2="-6" y2="0" style="shape-rendering: crispEdges; fill: none; stroke: rgb(204, 204, 204);"></line><text dy=".32em" x="-9" y="0" style="text-anchor: end;">0.02</text></g><g class="tick" transform="translate(0,515.9793814608354)" style="opacity: 1;"><line x2="-6" y2="0" style="shape-rendering: crispEdges; fill: none; stroke: rgb(204, 204, 204);"></line><text dy=".32em" x="-9" y="0" style="text-anchor: end;">0.04</text></g><g class="tick" transform="translate(0,498.969072191253)" style="opacity: 1;"><line x2="-6" y2="0" style="shape-rendering: crispEdges; fill: none; stroke: rgb(204, 204, 204);"></line><text dy=".32em" x="-9" y="0" style="text-anchor: end;">0.06</text></g><g class="tick" transform="translate(0,481.95876292167077)" style="opacity: 1;"><line x2="-6" y2="0" style="shape-rendering: crispEdges; fill: none; stroke: rgb(204, 204, 204);"></line><text dy=".32em" x="-9" y="0" style="text-anchor: end;">0.08</text></g><g class="tick" transform="translate(0,464.9484536520884)" style="opacity: 1;"><line x2="-6" y2="0" style="shape-rendering: crispEdges; fill: none; stroke: rgb(204, 204, 204);"></line><text dy=".32em" x="-9" y="0" style="text-anchor: end;">0.10</text></g><g class="tick" transform="translate(0,447.9381443825061)" style="opacity: 1;"><line x2="-6" y2="0" style="shape-rendering: crispEdges; fill: none; stroke: rgb(204, 204, 204);"></line><text dy=".32em" x="-9" y="0" style="text-anchor: end;">0.12</text></g><g class="tick" transform="translate(0,430.9278351129238)" style="opacity: 1;"><line x2="-6" y2="0" style="shape-rendering: crispEdges; fill: none; stroke: rgb(204, 204, 204);"></line><text dy=".32em" x="-9" y="0" style="text-anchor: end;">0.14</text></g><g class="tick" transform="translate(0,413.9175258433415)" style="opacity: 1;"><line x2="-6" y2="0" style="shape-rendering: crispEdges; fill: none; stroke: rgb(204, 204, 204);"></line><text dy=".32em" x="-9" y="0" style="text-anchor: end;">0.16</text></g><g class="tick" transform="translate(0,396.9072165737592)" style="opacity: 1;"><line x2="-6" y2="0" style="shape-rendering: crispEdges; fill: none; stroke: rgb(204, 204, 204);"></line><text dy=".32em" x="-9" y="0" style="text-anchor: end;">0.18</text></g><g class="tick" transform="translate(0,379.8969073041768)" style="opacity: 1;"><line x2="-6" y2="0" style="shape-rendering: crispEdges; fill: none; stroke: rgb(204, 204, 204);"></line><text dy=".32em" x="-9" y="0" style="text-anchor: end;">0.20</text></g><g class="tick" transform="translate(0,362.88659803459456)" style="opacity: 1;"><line x2="-6" y2="0" style="shape-rendering: crispEdges; fill: none; stroke: rgb(204, 204, 204);"></line><text dy=".32em" x="-9" y="0" style="text-anchor: end;">0.22</text></g><g class="tick" transform="translate(0,345.8762887650122)" style="opacity: 1;"><line x2="-6" y2="0" style="shape-rendering: crispEdges; fill: none; stroke: rgb(204, 204, 204);"></line><text dy=".32em" x="-9" y="0" style="text-anchor: end;">0.24</text></g><g class="tick" transform="translate(0,328.8659794954299)" style="opacity: 1;"><line x2="-6" y2="0" style="shape-rendering: crispEdges; fill: none; stroke: rgb(204, 204, 204);"></line><text dy=".32em" x="-9" y="0" style="text-anchor: end;">0.26</text></g><g class="tick" transform="translate(0,311.8556702258476)" style="opacity: 1;"><line x2="-6" y2="0" style="shape-rendering: crispEdges; fill: none; stroke: rgb(204, 204, 204);"></line><text dy=".32em" x="-9" y="0" style="text-anchor: end;">0.28</text></g><g class="tick" transform="translate(0,294.8453609562653)" style="opacity: 1;"><line x2="-6" y2="0" style="shape-rendering: crispEdges; fill: none; stroke: rgb(204, 204, 204);"></line><text dy=".32em" x="-9" y="0" style="text-anchor: end;">0.30</text></g><g class="tick" transform="translate(0,277.8350516866829)" style="opacity: 1;"><line x2="-6" y2="0" style="shape-rendering: crispEdges; fill: none; stroke: rgb(204, 204, 204);"></line><text dy=".32em" x="-9" y="0" style="text-anchor: end;">0.32</text></g><g class="tick" transform="translate(0,260.82474241710065)" style="opacity: 1;"><line x2="-6" y2="0" style="shape-rendering: crispEdges; fill: none; stroke: rgb(204, 204, 204);"></line><text dy=".32em" x="-9" y="0" style="text-anchor: end;">0.34</text></g><g class="tick" transform="translate(0,243.81443314751834)" style="opacity: 1;"><line x2="-6" y2="0" style="shape-rendering: crispEdges; fill: none; stroke: rgb(204, 204, 204);"></line><text dy=".32em" x="-9" y="0" style="text-anchor: end;">0.36</text></g><g class="tick" transform="translate(0,226.804123877936)" style="opacity: 1;"><line x2="-6" y2="0" style="shape-rendering: crispEdges; fill: none; stroke: rgb(204, 204, 204);"></line><text dy=".32em" x="-9" y="0" style="text-anchor: end;">0.38</text></g><g class="tick" transform="translate(0,209.79381460835367)" style="opacity: 1;"><line x2="-6" y2="0" style="shape-rendering: crispEdges; fill: none; stroke: rgb(204, 204, 204);"></line><text dy=".32em" x="-9" y="0" style="text-anchor: end;">0.40</text></g><g class="tick" transform="translate(0,192.7835053387714)" style="opacity: 1;"><line x2="-6" y2="0" style="shape-rendering: crispEdges; fill: none; stroke: rgb(204, 204, 204);"></line><text dy=".32em" x="-9" y="0" style="text-anchor: end;">0.42</text></g><g class="tick" transform="translate(0,175.77319606918905)" style="opacity: 1;"><line x2="-6" y2="0" style="shape-rendering: crispEdges; fill: none; stroke: rgb(204, 204, 204);"></line><text dy=".32em" x="-9" y="0" style="text-anchor: end;">0.44</text></g><g class="tick" transform="translate(0,158.76288679960672)" style="opacity: 1;"><line x2="-6" y2="0" style="shape-rendering: crispEdges; fill: none; stroke: rgb(204, 204, 204);"></line><text dy=".32em" x="-9" y="0" style="text-anchor: end;">0.46</text></g><g class="tick" transform="translate(0,141.75257753002444)" style="opacity: 1;"><line x2="-6" y2="0" style="shape-rendering: crispEdges; fill: none; stroke: rgb(204, 204, 204);"></line><text dy=".32em" x="-9" y="0" style="text-anchor: end;">0.48</text></g><g class="tick" transform="translate(0,124.74226826044209)" style="opacity: 1;"><line x2="-6" y2="0" style="shape-rendering: crispEdges; fill: none; stroke: rgb(204, 204, 204);"></line><text dy=".32em" x="-9" y="0" style="text-anchor: end;">0.50</text></g><g class="tick" transform="translate(0,107.73195899085981)" style="opacity: 1;"><line x2="-6" y2="0" style="shape-rendering: crispEdges; fill: none; stroke: rgb(204, 204, 204);"></line><text dy=".32em" x="-9" y="0" style="text-anchor: end;">0.52</text></g><g class="tick" transform="translate(0,90.72164972127746)" style="opacity: 1;"><line x2="-6" y2="0" style="shape-rendering: crispEdges; fill: none; stroke: rgb(204, 204, 204);"></line><text dy=".32em" x="-9" y="0" style="text-anchor: end;">0.54</text></g><g class="tick" transform="translate(0,73.71134045169512)" style="opacity: 1;"><line x2="-6" y2="0" style="shape-rendering: crispEdges; fill: none; stroke: rgb(204, 204, 204);"></line><text dy=".32em" x="-9" y="0" style="text-anchor: end;">0.56</text></g><g class="tick" transform="translate(0,56.70103118211291)" style="opacity: 1;"><line x2="-6" y2="0" style="shape-rendering: crispEdges; fill: none; stroke: rgb(204, 204, 204);"></line><text dy=".32em" x="-9" y="0" style="text-anchor: end;">0.58</text></g><g class="tick" transform="translate(0,39.69072191253056)" style="opacity: 1;"><line x2="-6" y2="0" style="shape-rendering: crispEdges; fill: none; stroke: rgb(204, 204, 204);"></line><text dy=".32em" x="-9" y="0" style="text-anchor: end;">0.60</text></g><g class="tick" transform="translate(0,22.680412642948223)" style="opacity: 1;"><line x2="-6" y2="0" style="shape-rendering: crispEdges; fill: none; stroke: rgb(204, 204, 204);"></line><text dy=".32em" x="-9" y="0" style="text-anchor: end;">0.62</text></g><g class="tick" transform="translate(0,5.670103373365881)" style="opacity: 1;"><line x2="-6" y2="0" style="shape-rendering: crispEdges; fill: none; stroke: rgb(204, 204, 204);"></line><text dy=".32em" x="-9" y="0" style="text-anchor: end;">0.64</text></g><path class="domain" d="M-6,0H0V550H-6" style="shape-rendering: crispEdges; fill: none; stroke: rgb(204, 204, 204);"></path></g><rect transform="translate(0,0)" class="bar" x="34" width="14" y="294.8453609562653" height="255.15463904373468" style="fill: rgb(191, 105, 105);"></rect><rect transform="translate(0,0)" class="bar" x="50" width="14" y="438.96048077888634" height="111.03951922111366" style="fill: rgb(191, 105, 105);"></rect><rect transform="translate(0,0)" class="bar" x="66" width="14" y="422.42268047813263" height="127.57731952186737" style="fill: rgb(191, 105, 105);"></rect><rect transform="translate(0,0)" class="bar" x="82" width="14" y="351.68772229294444" height="198.31227770705556" style="fill: rgb(191, 105, 105);"></rect><rect transform="translate(0,0)" class="bar" x="98" width="14" y="422.42268047813263" height="127.57731952186737" style="fill: rgb(191, 105, 105);"></rect><rect transform="translate(0,0)" class="bar" x="114" width="14" y="379.8969073041768" height="170.1030926958232" style="fill: rgb(191, 105, 105);"></rect><rect transform="translate(0,0)" class="bar" x="130" width="14" y="550" height="0" style="fill: rgb(191, 105, 105);"></rect><rect transform="translate(0,0)" class="bar" x="146" width="14" y="321.4239691899876" height="228.5760308100124" style="fill: rgb(191, 105, 105);"></rect><rect transform="translate(0,0)" class="bar" x="162" width="14" y="211.68384878263717" height="338.31615121736286" style="fill: rgb(191, 105, 105);"></rect><rect transform="translate(0,0)" class="bar" x="178" width="14" y="184.94372000776096" height="365.05627999223907" style="fill: rgb(191, 105, 105);"></rect><rect transform="translate(0,0)" class="bar" x="194" width="14" y="365.48539566212094" height="184.51460433787906" style="fill: rgb(191, 105, 105);"></rect><rect transform="translate(0,0)" class="bar" x="210" width="14" y="235.48646895078014" height="314.51353104921986" style="fill: rgb(191, 105, 105);"></rect><rect transform="translate(0,0)" class="bar" x="226" width="14" y="443.68556706511055" height="106.31443293488945" style="fill: rgb(191, 105, 105);"></rect><rect transform="translate(0,0)" class="bar" x="242" width="14" y="219.86837269594415" height="330.1316273040559" style="fill: rgb(191, 105, 105);"></rect><rect transform="translate(0,0)" class="bar" x="258" width="14" y="498.1717139442414" height="51.82828605575861" style="fill: rgb(191, 105, 105);"></rect><rect transform="translate(0,0)" class="bar" x="274" width="14" y="193.41351701370434" height="356.58648298629566" style="fill: rgb(191, 105, 105);"></rect><rect transform="translate(0,0)" class="bar" x="290" width="14" y="158.2474225472951" height="391.75257745270494" style="fill: rgb(191, 105, 105);"></rect><rect transform="translate(0,0)" class="bar" x="306" width="14" y="469.82119877844264" height="80.17880122155736" style="fill: rgb(191, 105, 105);"></rect><rect transform="translate(0,0)" class="bar" x="322" width="14" y="423.88155094129814" height="126.11844905870186" style="fill: rgb(191, 105, 105);"></rect><rect transform="translate(0,0)" class="bar" x="338" width="14" y="346.72203964086486" height="203.27796035913514" style="fill: rgb(191, 105, 105);"></rect><rect transform="translate(0,0)" class="bar" x="354" width="14" y="312.16721404012003" height="237.83278595987997" style="fill: rgb(191, 105, 105);"></rect><rect transform="translate(0,0)" class="bar" x="370" width="14" y="263.87917308562925" height="286.12082691437075" style="fill: rgb(191, 105, 105);"></rect><rect transform="translate(0,0)" class="bar" x="386" width="14" y="479.1237116602455" height="70.87628833975452" style="fill: rgb(191, 105, 105);"></rect><rect transform="translate(0,0)" class="bar" x="402" width="14" y="433.7628863743491" height="116.23711362565092" style="fill: rgb(191, 105, 105);"></rect><rect transform="translate(0,0)" class="bar" x="418" width="14" y="468.49226836675655" height="81.50773163324345" style="fill: rgb(191, 105, 105);"></rect><rect transform="translate(0,0)" class="bar" x="434" width="14" y="209.79381460835367" height="340.20618539164633" style="fill: rgb(191, 105, 105);"></rect><rect transform="translate(0,0)" class="bar" x="450" width="14" y="348.00257742371" height="201.99742257628998" style="fill: rgb(191, 105, 105);"></rect><rect transform="translate(0,0)" class="bar" x="466" width="14" y="402.93170082323104" height="147.06829917676896" style="fill: rgb(191, 105, 105);"></rect><rect transform="translate(0,0)" class="bar" x="482" width="14" y="114.1108249669532" height="435.8891750330468" style="fill: rgb(191, 105, 105);"></rect><rect transform="translate(0,0)" class="bar" x="498" width="14" y="411.79123718464365" height="138.20876281535635" style="fill: rgb(191, 105, 105);"></rect><rect transform="translate(0,0)" class="bar" x="514" width="14" y="415.0566092963625" height="134.94339070363748" style="fill: rgb(191, 105, 105);"></rect><rect transform="translate(0,0)" class="bar" x="530" width="14" y="348.2388319081243" height="201.76116809187567" style="fill: rgb(191, 105, 105);"></rect><rect transform="translate(0,0)" class="bar" x="546" width="14" y="252.3195877823095" height="297.6804122176905" style="fill: rgb(191, 105, 105);"></rect><rect transform="translate(0,0)" class="bar" x="562" width="14" y="393.3915275549528" height="156.6084724450472" style="fill: rgb(191, 105, 105);"></rect><rect transform="translate(0,0)" class="bar" x="578" width="14" y="337.3711341302211" height="212.6288658697789" style="fill: rgb(191, 105, 105);"></rect><rect transform="translate(0,0)" class="bar" x="594" width="14" y="198.48735886675908" height="351.5126411332409" style="fill: rgb(191, 105, 105);"></rect><rect transform="translate(0,0)" class="bar" x="610" width="14" y="410.8609858964634" height="139.13901410353662" style="fill: rgb(191, 105, 105);"></rect><rect transform="translate(0,0)" class="bar" x="626" width="14" y="258.2259447895742" height="291.7740552104258" style="fill: rgb(191, 105, 105);"></rect><rect transform="translate(0,0)" class="bar" x="642" width="14" y="360.40592764927527" height="189.59407235072473" style="fill: rgb(191, 105, 105);"></rect><rect transform="translate(0,0)" class="bar" x="658" width="14" y="353.3413106168344" height="196.6586893831656" style="fill: rgb(191, 105, 105);"></rect><rect transform="translate(0,0)" class="bar" x="674" width="14" y="431.26610807666697" height="118.73389192333303" style="fill: rgb(191, 105, 105);"></rect><rect transform="translate(0,0)" class="bar" x="690" width="14" y="444.8453605696673" height="105.15463943033268" style="fill: rgb(191, 105, 105);"></rect><rect transform="translate(0,0)" class="bar" x="706" width="14" y="244.1735394875394" height="305.8264605124606" style="fill: rgb(191, 105, 105);"></rect><rect transform="translate(0,0)" class="bar" x="722" width="14" y="311.8556702258476" height="238.14432977415242" style="fill: rgb(191, 105, 105);"></rect><rect transform="translate(0,0)" class="bar" x="738" width="14" y="202.70618602953286" height="347.2938139704671" style="fill: rgb(191, 105, 105);"></rect><rect transform="translate(0,0)" class="bar" x="754" width="14" y="311.8556702258476" height="238.14432977415242" style="fill: rgb(191, 105, 105);"></rect><rect transform="translate(0,0)" class="bar" x="770" width="14" y="124.74226826044209" height="425.2577317395579" style="fill: rgb(191, 105, 105);"></rect><rect transform="translate(0,0)" class="bar" x="786" width="14" y="486.2113402390663" height="63.78865976093368" style="fill: rgb(191, 105, 105);"></rect><rect transform="translate(0,0)" class="bar" x="802" width="14" y="449.001288711855" height="100.99871128814499" style="fill: rgb(191, 105, 105);"></rect><rect transform="translate(0,0)" class="bar" x="818" width="14" y="464.9484536520884" height="85.0515463479116" style="fill: rgb(191, 105, 105);"></rect><rect transform="translate(0,0)" class="bar" x="834" width="14" y="275.0000004252577" height="274.9999995747423" style="fill: rgb(191, 105, 105);"></rect><rect transform="translate(0,0)" class="bar" x="850" width="14" y="330.1870749586664" height="219.81292504133359" style="fill: rgb(191, 105, 105);"></rect><rect transform="translate(0,0)" class="bar" x="866" width="14" y="166.28927334211892" height="383.7107266578811" style="fill: rgb(191, 105, 105);"></rect><rect transform="translate(0,0)" class="bar" x="882" width="14" y="395.48969051778874" height="154.51030948221126" style="fill: rgb(191, 105, 105);"></rect><rect transform="translate(0,0)" class="bar" x="898" width="14" y="365.72164929601973" height="184.27835070398027" style="fill: rgb(191, 105, 105);"></rect><rect transform="translate(0,0)" class="bar" x="914" width="14" y="360.996563860311" height="189.00343613968897" style="fill: rgb(191, 105, 105);"></rect><rect transform="translate(0,0)" class="bar" x="930" width="14" y="347.60882023319135" height="202.39117976680865" style="fill: rgb(191, 105, 105);"></rect><rect transform="translate(0,0)" class="bar" x="946" width="14" y="443.68556706511055" height="106.31443293488945" style="fill: rgb(191, 105, 105);"></rect><rect transform="translate(0,0)" class="bar" x="962" width="14" y="351.5463921383781" height="198.4536078616219" style="fill: rgb(191, 105, 105);"></rect><rect transform="translate(0,0)" class="bar" x="978" width="14" y="273.58247436928735" height="276.41752563071265" style="fill: rgb(191, 105, 105);"></rect><rect transform="translate(0,0)" class="bar" x="994" width="14" y="432.96552812733734" height="117.03447187266266" style="fill: rgb(191, 105, 105);"></rect><rect transform="translate(0,0)" class="bar" x="1010" width="14" y="392.51886977189747" height="157.48113022810253" style="fill: rgb(191, 105, 105);"></rect><rect transform="translate(0,0)" class="bar" x="1026" width="14" y="188.5309280213758" height="361.46907197862424" style="fill: rgb(191, 105, 105);"></rect><rect transform="translate(0,0)" class="bar" x="1042" width="14" y="340.61963031411364" height="209.38036968588636" style="fill: rgb(191, 105, 105);"></rect><rect transform="translate(0,0)" class="bar" x="1058" width="14" y="312.9581900190937" height="237.0418099809063" style="fill: rgb(191, 105, 105);"></rect><rect transform="translate(0,0)" class="bar" x="1074" width="14" y="360.8213202521539" height="189.1786797478461" style="fill: rgb(191, 105, 105);"></rect><rect transform="translate(0,0)" class="bar" x="1090" width="14" y="336.56111936259737" height="213.43888063740263" style="fill: rgb(191, 105, 105);"></rect><rect transform="translate(0,0)" class="bar" x="1106" width="14" y="140.5122427626225" height="409.48775723737754" style="fill: rgb(191, 105, 105);"></rect><rect transform="translate(0,0)" class="bar" x="1122" width="14" y="39.69072191253056" height="510.30927808746947" style="fill: rgb(191, 105, 105);"></rect><rect transform="translate(0,0)" class="bar" x="1138" width="14" y="471.511072643551" height="78.48892735644898" style="fill: rgb(191, 105, 105);"></rect><rect transform="translate(0,0)" class="bar" x="1154" width="14" y="345.2462770900793" height="204.75372290992073" style="fill: rgb(191, 105, 105);"></rect><rect transform="translate(0,0)" class="bar" x="1170" width="14" y="228.01914560411382" height="321.9808543958862" style="fill: rgb(191, 105, 105);"></rect><rect transform="translate(0,0)" class="bar" x="1186" width="14" y="266.49484579046657" height="283.50515420953343" style="fill: rgb(191, 105, 105);"></rect><rect transform="translate(0,0)" class="bar" x="1202" width="14" y="335.3865983322749" height="214.6134016677251" style="fill: rgb(191, 105, 105);"></rect><rect transform="translate(0,0)" class="bar" x="1218" width="14" y="284.91283639952945" height="265.08716360047055" style="fill: rgb(191, 105, 105);"></rect><rect transform="translate(0,0)" class="bar" x="1234" width="14" y="192.52577363787327" height="357.4742263621267" style="fill: rgb(191, 105, 105);"></rect><rect transform="translate(0,0)" class="bar" x="1250" width="14" y="283.82016047225767" height="266.17983952774233" style="fill: rgb(191, 105, 105);"></rect><rect transform="translate(0,0)" class="bar" x="1266" width="14" y="173.46971697243825" height="376.5302830275617" style="fill: rgb(191, 105, 105);"></rect><rect transform="translate(0,0)" class="bar" x="1282" width="14" y="148.7895808769126" height="401.2104191230874" style="fill: rgb(191, 105, 105);"></rect><rect transform="translate(0,0)" class="bar" x="1298" width="14" y="225.1503441880668" height="324.8496558119332" style="fill: rgb(191, 105, 105);"></rect><rect transform="translate(0,0)" class="bar" x="1314" width="14" y="469.6735399383126" height="80.32646006168738" style="fill: rgb(191, 105, 105);"></rect><rect transform="translate(0,0)" class="bar" x="1330" width="14" y="64.49742321417652" height="485.50257678582346" style="fill: rgb(191, 105, 105);"></rect><rect transform="translate(0,0)" class="bar" x="1346" width="14" y="42.34858273590271" height="507.6514172640973" style="fill: rgb(191, 105, 105);"></rect><rect transform="translate(0,0)" class="bar" x="1362" width="14" y="337.3711341302211" height="212.6288658697789" style="fill: rgb(191, 105, 105);"></rect><rect transform="translate(0,0)" class="bar" x="1378" width="14" y="197.036082656167" height="352.96391734383303" style="fill: rgb(191, 105, 105);"></rect><rect transform="translate(0,0)" class="bar" x="1394" width="14" y="179.41826209823796" height="370.58173790176204" style="fill: rgb(191, 105, 105);"></rect><rect transform="translate(0,0)" class="bar" x="1410" width="14" y="0" height="550" style="fill: rgb(191, 105, 105);"></rect></g><g class="x axis" transform="translate(50,550)" style="font-size: 10px; font-family: Arial, Helvetica;"><g class="tick" transform="translate(41,0)" style="opacity: 1;"><line y2="6" x2="0" style="shape-rendering: crispEdges; fill: none; stroke: rgb(204, 204, 204);"></line><text dy=".71em" y="9" x="0" style="text-anchor: middle;">0</text></g><g class="tick" transform="translate(57,0)" style="opacity: 1;"><line y2="6" x2="0" style="shape-rendering: crispEdges; fill: none; stroke: rgb(204, 204, 204);"></line><text dy=".71em" y="9" x="0" style="text-anchor: middle;">1</text></g><g class="tick" transform="translate(73,0)" style="opacity: 1;"><line y2="6" x2="0" style="shape-rendering: crispEdges; fill: none; stroke: rgb(204, 204, 204);"></line><text dy=".71em" y="9" x="0" style="text-anchor: middle;">2</text></g><g class="tick" transform="translate(89,0)" style="opacity: 1;"><line y2="6" x2="0" style="shape-rendering: crispEdges; fill: none; stroke: rgb(204, 204, 204);"></line><text dy=".71em" y="9" x="0" style="text-anchor: middle;">3</text></g><g class="tick" transform="translate(105,0)" style="opacity: 1;"><line y2="6" x2="0" style="shape-rendering: crispEdges; fill: none; stroke: rgb(204, 204, 204);"></line><text dy=".71em" y="9" x="0" style="text-anchor: middle;">4</text></g><g class="tick" transform="translate(121,0)" style="opacity: 1;"><line y2="6" x2="0" style="shape-rendering: crispEdges; fill: none; stroke: rgb(204, 204, 204);"></line><text dy=".71em" y="9" x="0" style="text-anchor: middle;">5</text></g><g class="tick" transform="translate(137,0)" style="opacity: 1;"><line y2="6" x2="0" style="shape-rendering: crispEdges; fill: none; stroke: rgb(204, 204, 204);"></line><text dy=".71em" y="9" x="0" style="text-anchor: middle;">6</text></g><g class="tick" transform="translate(153,0)" style="opacity: 1;"><line y2="6" x2="0" style="shape-rendering: crispEdges; fill: none; stroke: rgb(204, 204, 204);"></line><text dy=".71em" y="9" x="0" style="text-anchor: middle;">7</text></g><g class="tick" transform="translate(169,0)" style="opacity: 1;"><line y2="6" x2="0" style="shape-rendering: crispEdges; fill: none; stroke: rgb(204, 204, 204);"></line><text dy=".71em" y="9" x="0" style="text-anchor: middle;">8</text></g><g class="tick" transform="translate(185,0)" style="opacity: 1;"><line y2="6" x2="0" style="shape-rendering: crispEdges; fill: none; stroke: rgb(204, 204, 204);"></line><text dy=".71em" y="9" x="0" style="text-anchor: middle;">9</text></g><g class="tick" transform="translate(201,0)" style="opacity: 1;"><line y2="6" x2="0" style="shape-rendering: crispEdges; fill: none; stroke: rgb(204, 204, 204);"></line><text dy=".71em" y="9" x="0" style="text-anchor: middle;">10</text></g><g class="tick" transform="translate(217,0)" style="opacity: 1;"><line y2="6" x2="0" style="shape-rendering: crispEdges; fill: none; stroke: rgb(204, 204, 204);"></line><text dy=".71em" y="9" x="0" style="text-anchor: middle;">11</text></g><g class="tick" transform="translate(233,0)" style="opacity: 1;"><line y2="6" x2="0" style="shape-rendering: crispEdges; fill: none; stroke: rgb(204, 204, 204);"></line><text dy=".71em" y="9" x="0" style="text-anchor: middle;">12</text></g><g class="tick" transform="translate(249,0)" style="opacity: 1;"><line y2="6" x2="0" style="shape-rendering: crispEdges; fill: none; stroke: rgb(204, 204, 204);"></line><text dy=".71em" y="9" x="0" style="text-anchor: middle;">13</text></g><g class="tick" transform="translate(265,0)" style="opacity: 1;"><line y2="6" x2="0" style="shape-rendering: crispEdges; fill: none; stroke: rgb(204, 204, 204);"></line><text dy=".71em" y="9" x="0" style="text-anchor: middle;">14</text></g><g class="tick" transform="translate(281,0)" style="opacity: 1;"><line y2="6" x2="0" style="shape-rendering: crispEdges; fill: none; stroke: rgb(204, 204, 204);"></line><text dy=".71em" y="9" x="0" style="text-anchor: middle;">15</text></g><g class="tick" transform="translate(297,0)" style="opacity: 1;"><line y2="6" x2="0" style="shape-rendering: crispEdges; fill: none; stroke: rgb(204, 204, 204);"></line><text dy=".71em" y="9" x="0" style="text-anchor: middle;">16</text></g><g class="tick" transform="translate(313,0)" style="opacity: 1;"><line y2="6" x2="0" style="shape-rendering: crispEdges; fill: none; stroke: rgb(204, 204, 204);"></line><text dy=".71em" y="9" x="0" style="text-anchor: middle;">17</text></g><g class="tick" transform="translate(329,0)" style="opacity: 1;"><line y2="6" x2="0" style="shape-rendering: crispEdges; fill: none; stroke: rgb(204, 204, 204);"></line><text dy=".71em" y="9" x="0" style="text-anchor: middle;">18</text></g><g class="tick" transform="translate(345,0)" style="opacity: 1;"><line y2="6" x2="0" style="shape-rendering: crispEdges; fill: none; stroke: rgb(204, 204, 204);"></line><text dy=".71em" y="9" x="0" style="text-anchor: middle;">19</text></g><g class="tick" transform="translate(361,0)" style="opacity: 1;"><line y2="6" x2="0" style="shape-rendering: crispEdges; fill: none; stroke: rgb(204, 204, 204);"></line><text dy=".71em" y="9" x="0" style="text-anchor: middle;">20</text></g><g class="tick" transform="translate(377,0)" style="opacity: 1;"><line y2="6" x2="0" style="shape-rendering: crispEdges; fill: none; stroke: rgb(204, 204, 204);"></line><text dy=".71em" y="9" x="0" style="text-anchor: middle;">21</text></g><g class="tick" transform="translate(393,0)" style="opacity: 1;"><line y2="6" x2="0" style="shape-rendering: crispEdges; fill: none; stroke: rgb(204, 204, 204);"></line><text dy=".71em" y="9" x="0" style="text-anchor: middle;">22</text></g><g class="tick" transform="translate(409,0)" style="opacity: 1;"><line y2="6" x2="0" style="shape-rendering: crispEdges; fill: none; stroke: rgb(204, 204, 204);"></line><text dy=".71em" y="9" x="0" style="text-anchor: middle;">23</text></g><g class="tick" transform="translate(425,0)" style="opacity: 1;"><line y2="6" x2="0" style="shape-rendering: crispEdges; fill: none; stroke: rgb(204, 204, 204);"></line><text dy=".71em" y="9" x="0" style="text-anchor: middle;">24</text></g><g class="tick" transform="translate(441,0)" style="opacity: 1;"><line y2="6" x2="0" style="shape-rendering: crispEdges; fill: none; stroke: rgb(204, 204, 204);"></line><text dy=".71em" y="9" x="0" style="text-anchor: middle;">25</text></g><g class="tick" transform="translate(457,0)" style="opacity: 1;"><line y2="6" x2="0" style="shape-rendering: crispEdges; fill: none; stroke: rgb(204, 204, 204);"></line><text dy=".71em" y="9" x="0" style="text-anchor: middle;">26</text></g><g class="tick" transform="translate(473,0)" style="opacity: 1;"><line y2="6" x2="0" style="shape-rendering: crispEdges; fill: none; stroke: rgb(204, 204, 204);"></line><text dy=".71em" y="9" x="0" style="text-anchor: middle;">27</text></g><g class="tick" transform="translate(489,0)" style="opacity: 1;"><line y2="6" x2="0" style="shape-rendering: crispEdges; fill: none; stroke: rgb(204, 204, 204);"></line><text dy=".71em" y="9" x="0" style="text-anchor: middle;">28</text></g><g class="tick" transform="translate(505,0)" style="opacity: 1;"><line y2="6" x2="0" style="shape-rendering: crispEdges; fill: none; stroke: rgb(204, 204, 204);"></line><text dy=".71em" y="9" x="0" style="text-anchor: middle;">29</text></g><g class="tick" transform="translate(521,0)" style="opacity: 1;"><line y2="6" x2="0" style="shape-rendering: crispEdges; fill: none; stroke: rgb(204, 204, 204);"></line><text dy=".71em" y="9" x="0" style="text-anchor: middle;">30</text></g><g class="tick" transform="translate(537,0)" style="opacity: 1;"><line y2="6" x2="0" style="shape-rendering: crispEdges; fill: none; stroke: rgb(204, 204, 204);"></line><text dy=".71em" y="9" x="0" style="text-anchor: middle;">31</text></g><g class="tick" transform="translate(553,0)" style="opacity: 1;"><line y2="6" x2="0" style="shape-rendering: crispEdges; fill: none; stroke: rgb(204, 204, 204);"></line><text dy=".71em" y="9" x="0" style="text-anchor: middle;">32</text></g><g class="tick" transform="translate(569,0)" style="opacity: 1;"><line y2="6" x2="0" style="shape-rendering: crispEdges; fill: none; stroke: rgb(204, 204, 204);"></line><text dy=".71em" y="9" x="0" style="text-anchor: middle;">33</text></g><g class="tick" transform="translate(585,0)" style="opacity: 1;"><line y2="6" x2="0" style="shape-rendering: crispEdges; fill: none; stroke: rgb(204, 204, 204);"></line><text dy=".71em" y="9" x="0" style="text-anchor: middle;">34</text></g><g class="tick" transform="translate(601,0)" style="opacity: 1;"><line y2="6" x2="0" style="shape-rendering: crispEdges; fill: none; stroke: rgb(204, 204, 204);"></line><text dy=".71em" y="9" x="0" style="text-anchor: middle;">35</text></g><g class="tick" transform="translate(617,0)" style="opacity: 1;"><line y2="6" x2="0" style="shape-rendering: crispEdges; fill: none; stroke: rgb(204, 204, 204);"></line><text dy=".71em" y="9" x="0" style="text-anchor: middle;">36</text></g><g class="tick" transform="translate(633,0)" style="opacity: 1;"><line y2="6" x2="0" style="shape-rendering: crispEdges; fill: none; stroke: rgb(204, 204, 204);"></line><text dy=".71em" y="9" x="0" style="text-anchor: middle;">37</text></g><g class="tick" transform="translate(649,0)" style="opacity: 1;"><line y2="6" x2="0" style="shape-rendering: crispEdges; fill: none; stroke: rgb(204, 204, 204);"></line><text dy=".71em" y="9" x="0" style="text-anchor: middle;">38</text></g><g class="tick" transform="translate(665,0)" style="opacity: 1;"><line y2="6" x2="0" style="shape-rendering: crispEdges; fill: none; stroke: rgb(204, 204, 204);"></line><text dy=".71em" y="9" x="0" style="text-anchor: middle;">39</text></g><g class="tick" transform="translate(681,0)" style="opacity: 1;"><line y2="6" x2="0" style="shape-rendering: crispEdges; fill: none; stroke: rgb(204, 204, 204);"></line><text dy=".71em" y="9" x="0" style="text-anchor: middle;">40</text></g><g class="tick" transform="translate(697,0)" style="opacity: 1;"><line y2="6" x2="0" style="shape-rendering: crispEdges; fill: none; stroke: rgb(204, 204, 204);"></line><text dy=".71em" y="9" x="0" style="text-anchor: middle;">41</text></g><g class="tick" transform="translate(713,0)" style="opacity: 1;"><line y2="6" x2="0" style="shape-rendering: crispEdges; fill: none; stroke: rgb(204, 204, 204);"></line><text dy=".71em" y="9" x="0" style="text-anchor: middle;">42</text></g><g class="tick" transform="translate(729,0)" style="opacity: 1;"><line y2="6" x2="0" style="shape-rendering: crispEdges; fill: none; stroke: rgb(204, 204, 204);"></line><text dy=".71em" y="9" x="0" style="text-anchor: middle;">43</text></g><g class="tick" transform="translate(745,0)" style="opacity: 1;"><line y2="6" x2="0" style="shape-rendering: crispEdges; fill: none; stroke: rgb(204, 204, 204);"></line><text dy=".71em" y="9" x="0" style="text-anchor: middle;">44</text></g><g class="tick" transform="translate(761,0)" style="opacity: 1;"><line y2="6" x2="0" style="shape-rendering: crispEdges; fill: none; stroke: rgb(204, 204, 204);"></line><text dy=".71em" y="9" x="0" style="text-anchor: middle;">45</text></g><g class="tick" transform="translate(777,0)" style="opacity: 1;"><line y2="6" x2="0" style="shape-rendering: crispEdges; fill: none; stroke: rgb(204, 204, 204);"></line><text dy=".71em" y="9" x="0" style="text-anchor: middle;">46</text></g><g class="tick" transform="translate(793,0)" style="opacity: 1;"><line y2="6" x2="0" style="shape-rendering: crispEdges; fill: none; stroke: rgb(204, 204, 204);"></line><text dy=".71em" y="9" x="0" style="text-anchor: middle;">47</text></g><g class="tick" transform="translate(809,0)" style="opacity: 1;"><line y2="6" x2="0" style="shape-rendering: crispEdges; fill: none; stroke: rgb(204, 204, 204);"></line><text dy=".71em" y="9" x="0" style="text-anchor: middle;">48</text></g><g class="tick" transform="translate(825,0)" style="opacity: 1;"><line y2="6" x2="0" style="shape-rendering: crispEdges; fill: none; stroke: rgb(204, 204, 204);"></line><text dy=".71em" y="9" x="0" style="text-anchor: middle;">49</text></g><g class="tick" transform="translate(841,0)" style="opacity: 1;"><line y2="6" x2="0" style="shape-rendering: crispEdges; fill: none; stroke: rgb(204, 204, 204);"></line><text dy=".71em" y="9" x="0" style="text-anchor: middle;">50</text></g><g class="tick" transform="translate(857,0)" style="opacity: 1;"><line y2="6" x2="0" style="shape-rendering: crispEdges; fill: none; stroke: rgb(204, 204, 204);"></line><text dy=".71em" y="9" x="0" style="text-anchor: middle;">51</text></g><g class="tick" transform="translate(873,0)" style="opacity: 1;"><line y2="6" x2="0" style="shape-rendering: crispEdges; fill: none; stroke: rgb(204, 204, 204);"></line><text dy=".71em" y="9" x="0" style="text-anchor: middle;">52</text></g><g class="tick" transform="translate(889,0)" style="opacity: 1;"><line y2="6" x2="0" style="shape-rendering: crispEdges; fill: none; stroke: rgb(204, 204, 204);"></line><text dy=".71em" y="9" x="0" style="text-anchor: middle;">53</text></g><g class="tick" transform="translate(905,0)" style="opacity: 1;"><line y2="6" x2="0" style="shape-rendering: crispEdges; fill: none; stroke: rgb(204, 204, 204);"></line><text dy=".71em" y="9" x="0" style="text-anchor: middle;">54</text></g><g class="tick" transform="translate(921,0)" style="opacity: 1;"><line y2="6" x2="0" style="shape-rendering: crispEdges; fill: none; stroke: rgb(204, 204, 204);"></line><text dy=".71em" y="9" x="0" style="text-anchor: middle;">55</text></g><g class="tick" transform="translate(937,0)" style="opacity: 1;"><line y2="6" x2="0" style="shape-rendering: crispEdges; fill: none; stroke: rgb(204, 204, 204);"></line><text dy=".71em" y="9" x="0" style="text-anchor: middle;">56</text></g><g class="tick" transform="translate(953,0)" style="opacity: 1;"><line y2="6" x2="0" style="shape-rendering: crispEdges; fill: none; stroke: rgb(204, 204, 204);"></line><text dy=".71em" y="9" x="0" style="text-anchor: middle;">57</text></g><g class="tick" transform="translate(969,0)" style="opacity: 1;"><line y2="6" x2="0" style="shape-rendering: crispEdges; fill: none; stroke: rgb(204, 204, 204);"></line><text dy=".71em" y="9" x="0" style="text-anchor: middle;">58</text></g><g class="tick" transform="translate(985,0)" style="opacity: 1;"><line y2="6" x2="0" style="shape-rendering: crispEdges; fill: none; stroke: rgb(204, 204, 204);"></line><text dy=".71em" y="9" x="0" style="text-anchor: middle;">59</text></g><g class="tick" transform="translate(1001,0)" style="opacity: 1;"><line y2="6" x2="0" style="shape-rendering: crispEdges; fill: none; stroke: rgb(204, 204, 204);"></line><text dy=".71em" y="9" x="0" style="text-anchor: middle;">60</text></g><g class="tick" transform="translate(1017,0)" style="opacity: 1;"><line y2="6" x2="0" style="shape-rendering: crispEdges; fill: none; stroke: rgb(204, 204, 204);"></line><text dy=".71em" y="9" x="0" style="text-anchor: middle;">61</text></g><g class="tick" transform="translate(1033,0)" style="opacity: 1;"><line y2="6" x2="0" style="shape-rendering: crispEdges; fill: none; stroke: rgb(204, 204, 204);"></line><text dy=".71em" y="9" x="0" style="text-anchor: middle;">62</text></g><g class="tick" transform="translate(1049,0)" style="opacity: 1;"><line y2="6" x2="0" style="shape-rendering: crispEdges; fill: none; stroke: rgb(204, 204, 204);"></line><text dy=".71em" y="9" x="0" style="text-anchor: middle;">63</text></g><g class="tick" transform="translate(1065,0)" style="opacity: 1;"><line y2="6" x2="0" style="shape-rendering: crispEdges; fill: none; stroke: rgb(204, 204, 204);"></line><text dy=".71em" y="9" x="0" style="text-anchor: middle;">64</text></g><g class="tick" transform="translate(1081,0)" style="opacity: 1;"><line y2="6" x2="0" style="shape-rendering: crispEdges; fill: none; stroke: rgb(204, 204, 204);"></line><text dy=".71em" y="9" x="0" style="text-anchor: middle;">65</text></g><g class="tick" transform="translate(1097,0)" style="opacity: 1;"><line y2="6" x2="0" style="shape-rendering: crispEdges; fill: none; stroke: rgb(204, 204, 204);"></line><text dy=".71em" y="9" x="0" style="text-anchor: middle;">66</text></g><g class="tick" transform="translate(1113,0)" style="opacity: 1;"><line y2="6" x2="0" style="shape-rendering: crispEdges; fill: none; stroke: rgb(204, 204, 204);"></line><text dy=".71em" y="9" x="0" style="text-anchor: middle;">67</text></g><g class="tick" transform="translate(1129,0)" style="opacity: 1;"><line y2="6" x2="0" style="shape-rendering: crispEdges; fill: none; stroke: rgb(204, 204, 204);"></line><text dy=".71em" y="9" x="0" style="text-anchor: middle;">68</text></g><g class="tick" transform="translate(1145,0)" style="opacity: 1;"><line y2="6" x2="0" style="shape-rendering: crispEdges; fill: none; stroke: rgb(204, 204, 204);"></line><text dy=".71em" y="9" x="0" style="text-anchor: middle;">69</text></g><g class="tick" transform="translate(1161,0)" style="opacity: 1;"><line y2="6" x2="0" style="shape-rendering: crispEdges; fill: none; stroke: rgb(204, 204, 204);"></line><text dy=".71em" y="9" x="0" style="text-anchor: middle;">70</text></g><g class="tick" transform="translate(1177,0)" style="opacity: 1;"><line y2="6" x2="0" style="shape-rendering: crispEdges; fill: none; stroke: rgb(204, 204, 204);"></line><text dy=".71em" y="9" x="0" style="text-anchor: middle;">71</text></g><g class="tick" transform="translate(1193,0)" style="opacity: 1;"><line y2="6" x2="0" style="shape-rendering: crispEdges; fill: none; stroke: rgb(204, 204, 204);"></line><text dy=".71em" y="9" x="0" style="text-anchor: middle;">72</text></g><g class="tick" transform="translate(1209,0)" style="opacity: 1;"><line y2="6" x2="0" style="shape-rendering: crispEdges; fill: none; stroke: rgb(204, 204, 204);"></line><text dy=".71em" y="9" x="0" style="text-anchor: middle;">73</text></g><g class="tick" transform="translate(1225,0)" style="opacity: 1;"><line y2="6" x2="0" style="shape-rendering: crispEdges; fill: none; stroke: rgb(204, 204, 204);"></line><text dy=".71em" y="9" x="0" style="text-anchor: middle;">74</text></g><g class="tick" transform="translate(1241,0)" style="opacity: 1;"><line y2="6" x2="0" style="shape-rendering: crispEdges; fill: none; stroke: rgb(204, 204, 204);"></line><text dy=".71em" y="9" x="0" style="text-anchor: middle;">75</text></g><g class="tick" transform="translate(1257,0)" style="opacity: 1;"><line y2="6" x2="0" style="shape-rendering: crispEdges; fill: none; stroke: rgb(204, 204, 204);"></line><text dy=".71em" y="9" x="0" style="text-anchor: middle;">76</text></g><g class="tick" transform="translate(1273,0)" style="opacity: 1;"><line y2="6" x2="0" style="shape-rendering: crispEdges; fill: none; stroke: rgb(204, 204, 204);"></line><text dy=".71em" y="9" x="0" style="text-anchor: middle;">77</text></g><g class="tick" transform="translate(1289,0)" style="opacity: 1;"><line y2="6" x2="0" style="shape-rendering: crispEdges; fill: none; stroke: rgb(204, 204, 204);"></line><text dy=".71em" y="9" x="0" style="text-anchor: middle;">78</text></g><g class="tick" transform="translate(1305,0)" style="opacity: 1;"><line y2="6" x2="0" style="shape-rendering: crispEdges; fill: none; stroke: rgb(204, 204, 204);"></line><text dy=".71em" y="9" x="0" style="text-anchor: middle;">79</text></g><g class="tick" transform="translate(1321,0)" style="opacity: 1;"><line y2="6" x2="0" style="shape-rendering: crispEdges; fill: none; stroke: rgb(204, 204, 204);"></line><text dy=".71em" y="9" x="0" style="text-anchor: middle;">80</text></g><g class="tick" transform="translate(1337,0)" style="opacity: 1;"><line y2="6" x2="0" style="shape-rendering: crispEdges; fill: none; stroke: rgb(204, 204, 204);"></line><text dy=".71em" y="9" x="0" style="text-anchor: middle;">81</text></g><g class="tick" transform="translate(1353,0)" style="opacity: 1;"><line y2="6" x2="0" style="shape-rendering: crispEdges; fill: none; stroke: rgb(204, 204, 204);"></line><text dy=".71em" y="9" x="0" style="text-anchor: middle;">82</text></g><g class="tick" transform="translate(1369,0)" style="opacity: 1;"><line y2="6" x2="0" style="shape-rendering: crispEdges; fill: none; stroke: rgb(204, 204, 204);"></line><text dy=".71em" y="9" x="0" style="text-anchor: middle;">83</text></g><g class="tick" transform="translate(1385,0)" style="opacity: 1;"><line y2="6" x2="0" style="shape-rendering: crispEdges; fill: none; stroke: rgb(204, 204, 204);"></line><text dy=".71em" y="9" x="0" style="text-anchor: middle;">84</text></g><g class="tick" transform="translate(1401,0)" style="opacity: 1;"><line y2="6" x2="0" style="shape-rendering: crispEdges; fill: none; stroke: rgb(204, 204, 204);"></line><text dy=".71em" y="9" x="0" style="text-anchor: middle;">85</text></g><g class="tick" transform="translate(1417,0)" style="opacity: 1;"><line y2="6" x2="0" style="shape-rendering: crispEdges; fill: none; stroke: rgb(204, 204, 204);"></line><text dy=".71em" y="9" x="0" style="text-anchor: middle;">86</text></g><path class="domain" d="M0,6V0H1458V6" style="shape-rendering: crispEdges; fill: none; stroke: rgb(204, 204, 204);"></path></g></svg>